<svg viewBox="0 0 240 130" xmlns="http://www.w3.org/2000/svg">
  <rect x="6" y="58" width="14" height="10" rx="2" fill="#b6883f"/>
  <rect x="220" y="58" width="14" height="10" rx="2" fill="#b6883f"/>
  <rect x="18" y="34" width="204" height="56" rx="10" fill="#f3ecda" stroke="#201c15" stroke-width="3"/>
  <path d="M24 34 Q120 12 216 34" fill="none" stroke="#201c15" stroke-width="3" stroke-linecap="round"/>
  <rect x="18" y="34" width="204" height="8" fill="#a8532f"/>
  <rect x="30" y="50" width="24" height="26" rx="4" fill="#263c2b" stroke="#201c15" stroke-width="2.5"/>
  <rect x="68" y="50" width="24" height="26" rx="4" fill="#263c2b" stroke="#201c15" stroke-width="2.5"/>
  <rect x="106" y="50" width="24" height="26" rx="4" fill="#263c2b" stroke="#201c15" stroke-width="2.5"/>
  <rect x="144" y="50" width="24" height="26" rx="4" fill="#263c2b" stroke="#201c15" stroke-width="2.5"/>
  <rect x="182" y="50" width="24" height="26" rx="4" fill="#263c2b" stroke="#201c15" stroke-width="2.5"/>
  <rect x="18" y="82" width="204" height="8" fill="#d9caa1"/>
  <circle cx="62" cy="100" r="13" fill="#201c15"/>
  <circle cx="62" cy="100" r="4" fill="#d9caa1"/>
  <circle cx="178" cy="100" r="13" fill="#201c15"/>
  <circle cx="178" cy="100" r="4" fill="#d9caa1"/>
</svg>
